<?xml version="1.0" encoding="utf-8"?>
<!-- Generator: Adobe Illustrator 16.0.0, SVG Export Plug-In . SVG Version: 6.00 Build 0)  -->
<!DOCTYPE svg PUBLIC "-//W3C//DTD SVG 1.1//EN" "http://www.w3.org/Graphics/SVG/1.1/DTD/svg11.dtd">
<svg version="1.1" id="Vrstva_1" xmlns="http://www.w3.org/2000/svg" xmlns:xlink="http://www.w3.org/1999/xlink" x="0px" y="0px"
	 width="203.384px" height="121.69px" viewBox="0 0 203.384 121.69" enable-background="new 0 0 203.384 121.69"
	 xml:space="preserve">
	
	<style>
		.footer-item {
			fill: #939598;
		}
	</style>
	
<g>
	<polygon class="footer-item" points="203.007,52.491 203.007,67.498 180.605,67.498 180.605,97.488 165.681,97.488 165.681,67.498 37.316,67.498 
		37.316,97.488 22.393,97.488 22.393,67.498 0,67.498 0,52.491 14.908,52.491 188.083,52.491"/>
	<polygon class="footer-item" points="0,52.491 0,0 59.708,0 59.708,44.989 44.785,44.989 44.785,14.999 14.908,14.999 14.908,52.491 	
		"/>
	<polygon class="footer-item" points="203.007,0 203.007,52.491 188.083,52.491 188.083,14.999 158.216,14.999 158.216,44.989 
		143.289,44.989 143.289,0 	"/>
	<circle fill="#E30613" cx="120.848" cy="22.652" r="8.486"/>
	<path fill-rule="evenodd" clip-rule="evenodd" class="footer-item" d="M176.656,121.039v-1.778l0,0c1.297,0,2.402-0.461,3.315-1.384
		c0.457-0.462,0.8-0.974,1.028-1.534c0.228-0.56,0.342-1.17,0.342-1.832c0-1.32-0.457-2.448-1.371-3.382
		c-0.912-0.933-2.018-1.4-3.314-1.4l0,0v-1.746l0,0c0.9,0,1.738,0.16,2.512,0.479c0.773,0.319,1.48,0.797,2.122,1.432
		c0.642,0.636,1.123,1.339,1.444,2.11s0.482,1.607,0.482,2.508s-0.161,1.738-0.482,2.508c-0.321,0.771-0.804,1.474-1.444,2.11
		C180.004,120.401,178.46,121.039,176.656,121.039L176.656,121.039L176.656,121.039z M192.516,108.241h1.681h0.119l0.045,0.112
		l3.458,8.597l3.474-8.597l0.045-0.112h0.119h1.662h0.266l-0.102,0.245l-5.3,12.808l-0.164,0.396l-0.164-0.396l-5.303-12.808
		l-0.103-0.245H192.516z M176.656,107.982v1.746c-0.655,0-1.26,0.116-1.813,0.347c-0.552,0.231-1.056,0.58-1.51,1.044
		c-0.455,0.466-0.797,0.98-1.023,1.544s-0.34,1.179-0.34,1.847c0,0.656,0.114,1.263,0.344,1.821
		c0.229,0.559,0.574,1.071,1.035,1.537c0.46,0.465,0.966,0.814,1.516,1.046c0.549,0.231,1.146,0.347,1.791,0.347v1.778
		c-1.793,0-3.333-0.637-4.617-1.911c-0.642-0.636-1.123-1.339-1.444-2.11s-0.482-1.607-0.482-2.508c0-1.805,0.637-3.344,1.91-4.618
		S174.84,107.982,176.656,107.982L176.656,107.982z M156.43,117.526v-3.641c0.333-0.064,0.603-0.15,0.807-0.259v0
		c0.582-0.311,0.874-0.878,0.874-1.702c0-0.559-0.194-1.004-0.582-1.334c-0.249-0.209-0.575-0.367-0.978-0.473l-0.121-0.03v-1.794
		c0.211,0.021,0.409,0.047,0.596,0.08c0.261,0.045,0.51,0.117,0.743,0.215c0.235,0.098,0.457,0.223,0.664,0.374
		c0.206,0.149,0.397,0.324,0.57,0.522c0.173,0.196,0.328,0.416,0.466,0.658c0.14,0.245,0.245,0.51,0.314,0.792
		c0.07,0.282,0.105,0.581,0.105,0.895c0,0.97-0.29,1.79-0.868,2.459c-0.516,0.596-1.157,0.977-1.924,1.14l3.679,5.07l0.203,0.281
		l-0.348,0.001l-1.834,0.005h-0.092l-0.054-0.076L156.43,117.526L156.43,117.526z M156.43,107.152v-2.038l1.233-1.161l0.112-0.106
		l0.121,0.097l0.953,0.765l0.162,0.13l-0.155,0.14L156.43,107.152z M156.43,105.115v2.038l-0.172,0.154l-0.118,0.105l-0.118-0.105
		l-2.602-2.327l-0.155-0.139l0.161-0.131l0.94-0.765l0.12-0.099l0.114,0.107l1.525,1.446L156.43,105.115L156.43,105.115z
		 M156.43,108.293v1.794c-0.387-0.089-0.839-0.134-1.356-0.134h-0.323v4.07c0.675-0.007,1.235-0.053,1.68-0.139v3.641l-1.317-1.887
		l-0.362,0.001v4.962v0.178h-0.178h-1.52h-0.178v-0.178v-12.184v-0.178h0.178h2.182c0.343,0,0.663,0.011,0.962,0.033
		C156.276,108.279,156.354,108.286,156.43,108.293L156.43,108.293z M106.141,117.726v-1.746h1.893l-1.893-4.297v-4.201l0.149,0.324
		l5.833,12.722l0.115,0.25l-0.276,0l-1.651,0.003h-0.115l-0.047-0.104l-1.336-2.952H106.141L106.141,117.726z M119.047,108.241
		h1.681h0.12l0.045,0.112l3.458,8.597l3.473-8.597l0.045-0.112h0.12h1.662h0.266l-0.102,0.245l-5.3,12.808l-0.164,0.396
		l-0.164-0.396l-5.303-12.808l-0.102-0.245H119.047L119.047,108.241z M139.938,108.241h1.519h0.178v0.178v12.184v0.178h-0.178
		h-1.519h-0.178v-0.178v-12.184v-0.178H139.938L139.938,108.241z M142.264,103.908l1.358,0.692l0.229,0.117l-0.192,0.173
		l-2.682,2.416l-0.1,0.089l-0.113-0.071l-0.695-0.434l-0.165-0.103l0.117-0.155l2.021-2.674l0.089-0.119L142.264,103.908z
		 M6.011,110.833c-0.126-0.226-0.271-0.416-0.429-0.569c-0.157-0.151-0.331-0.27-0.521-0.354l-0.001,0
		c-0.135-0.061-0.275-0.107-0.419-0.136c-0.145-0.03-0.299-0.044-0.461-0.044c-0.525,0-0.976,0.173-1.351,0.518
		c-0.327,0.309-0.491,0.637-0.491,0.984c0,0.614,0.364,1.099,1.091,1.454c0.306,0.126,0.647,0.265,1.012,0.413v0
		c0.358,0.145,0.699,0.282,1.017,0.408l0.01,0.003l0.004,0.003c1.083,0.547,1.79,1.196,2.119,1.946l0.002,0.004
		c0.09,0.224,0.168,0.487,0.235,0.788c0.034,0.154,0.06,0.3,0.076,0.438c0.017,0.142,0.026,0.279,0.026,0.409
		c0,1.094-0.396,2.026-1.186,2.793c-0.789,0.766-1.735,1.149-2.838,1.149c-1.013,0-1.893-0.322-2.637-0.965
		c-0.778-0.677-1.224-1.546-1.337-2.604l-0.017-0.159l0.156-0.033l1.519-0.323l0.215-0.046v0.22c0,0.348,0.06,0.657,0.18,0.926
		c0.119,0.267,0.298,0.5,0.537,0.698h0c0.204,0.168,0.431,0.295,0.677,0.38S3.712,119.26,4,119.26c0.513,0,0.952-0.153,1.319-0.459
		v0c0.209-0.173,0.375-0.376,0.497-0.607c0.121-0.229,0.2-0.49,0.235-0.782v-0.395c0-0.565-0.236-1.036-0.708-1.41
		c-0.163-0.127-0.38-0.26-0.65-0.397c-0.274-0.139-0.603-0.283-0.984-0.43l-0.005-0.002c-0.521-0.219-0.963-0.43-1.326-0.629
		c-0.371-0.205-0.667-0.404-0.888-0.596l-0.001,0c-0.342-0.303-0.6-0.65-0.772-1.042c-0.171-0.391-0.258-0.825-0.258-1.302
		c0-0.822,0.326-1.549,0.976-2.177c0.362-0.349,0.779-0.612,1.25-0.788c0.468-0.174,0.987-0.262,1.556-0.262
		c0.721,0,1.357,0.164,1.905,0.49c0.546,0.326,1.003,0.813,1.368,1.459l0.085,0.149l-0.147,0.089l-1.195,0.727l-0.158,0.096
		L6.011,110.833L6.011,110.833z M106.141,107.482v4.201l-0.009-0.021l-1.884,4.318h1.893v1.746h-2.685l-1.332,2.952l-0.047,0.104
		h-0.115l-1.651-0.003l-0.276,0l0.115-0.25l5.817-12.722l0.161-0.352L106.141,107.482L106.141,107.482z M18.716,108.241h1.519h0.178
		v0.178v4.83l4.863-4.957l0.052-0.053l0.074,0l1.988,0.002h0.429l-0.304,0.303l-5.36,5.347l5.471,6.597l0.241,0.29l-0.377,0
		l-2.055,0.003H25.35l-0.054-0.066l-4.472-5.541l-0.412,0.422v5.004v0.178h-0.178h-1.519h-0.178v-0.178v-12.184v-0.178H18.716
		L18.716,108.241z M42.987,110.833c-0.126-0.226-0.27-0.416-0.429-0.569c-0.157-0.151-0.331-0.27-0.522-0.354l-0.001,0
		c-0.135-0.061-0.275-0.107-0.419-0.136c-0.145-0.03-0.299-0.044-0.461-0.044c-0.525,0-0.976,0.173-1.351,0.518
		c-0.327,0.309-0.491,0.637-0.491,0.984c0,0.614,0.364,1.099,1.091,1.454c0.306,0.126,0.647,0.265,1.012,0.413v0
		c0.358,0.145,0.699,0.282,1.017,0.408l0.01,0.003l0.005,0.003c1.082,0.547,1.789,1.196,2.118,1.946l0.002,0.004
		c0.089,0.224,0.168,0.487,0.234,0.788c0.034,0.154,0.06,0.3,0.076,0.438c0.017,0.142,0.025,0.279,0.025,0.409
		c0,1.094-0.395,2.026-1.185,2.793c-0.789,0.766-1.735,1.149-2.838,1.149c-1.013,0-1.892-0.322-2.637-0.965
		c-0.778-0.677-1.225-1.546-1.337-2.604l-0.017-0.159l0.156-0.033l1.519-0.323l0.215-0.046v0.22c0,0.348,0.06,0.657,0.18,0.926
		c0.119,0.267,0.298,0.5,0.537,0.698h0c0.204,0.168,0.431,0.295,0.677,0.38c0.247,0.085,0.516,0.127,0.805,0.127
		c0.513,0,0.952-0.153,1.319-0.459v0c0.209-0.173,0.375-0.376,0.497-0.607c0.121-0.229,0.2-0.49,0.235-0.782v-0.395
		c0-0.565-0.236-1.036-0.708-1.41c-0.164-0.127-0.38-0.26-0.651-0.397c-0.274-0.139-0.603-0.283-0.984-0.43l-0.004-0.002
		c-0.521-0.219-0.963-0.43-1.326-0.629c-0.37-0.205-0.667-0.404-0.887-0.596l-0.001,0c-0.342-0.303-0.6-0.65-0.772-1.042
		c-0.172-0.391-0.258-0.825-0.258-1.302c0-0.822,0.326-1.549,0.976-2.177c0.362-0.349,0.779-0.612,1.25-0.788
		c0.468-0.174,0.987-0.262,1.556-0.262c0.721,0,1.357,0.164,1.905,0.49c0.546,0.326,1.003,0.813,1.368,1.459l0.085,0.149
		l-0.147,0.089l-1.196,0.727l-0.157,0.096L42.987,110.833L42.987,110.833z M57.292,109.986h-2.73h-0.178v-0.178v-1.39v-0.178h0.178
		h7.32h0.178v0.178v1.39v0.178h-0.178h-2.73v10.616v0.178h-0.178H57.47h-0.178v-0.178V109.986L57.292,109.986z M81.25,108.241h1.519
		h0.178v0.178v4.718h5.46v-4.718v-0.178h0.178h1.503h0.178v0.178v12.184v0.178h-0.178h-1.503h-0.178v-0.178v-5.688h-5.46v5.688
		v0.178h-0.178H81.25h-0.178v-0.178v-12.184v-0.178H81.25z"/>
</g>
</svg>
