<?xml version="1.0" standalone="no"?>
<!DOCTYPE svg PUBLIC "-//W3C//DTD SVG 20010904//EN"
 "http://www.w3.org/TR/2001/REC-SVG-20010904/DTD/svg10.dtd">
<svg version="1.0" xmlns="http://www.w3.org/2000/svg"
 width="1634.000000pt" height="1634.000000pt" viewBox="0 0 1634.000000 1634.000000"
 preserveAspectRatio="xMidYMid meet">

<g transform="translate(0.000000,1634.000000) scale(0.100000,-0.100000)"
fill="#000000" stroke="none">
<path d="M8180 14288 c0 -9 -268 -827 -560 -1708 -74 -222 -591 -1789 -665
-2014 -30 -93 -55 -173 -55 -177 0 -5 109 -8 252 -7 l252 3 126 385 c70 212
245 741 389 1176 143 436 261 797 261 803 0 46 33 -43 157 -416 77 -236 249
-759 382 -1163 261 -792 260 -790 270 -790 3 0 42 7 86 15 44 8 151 18 238 22
86 3 157 8 157 11 0 7 -211 649 -845 2567 -79 242 -209 635 -287 873 -125 379
-158 467 -158 420z"/>
<path d="M5378 10299 c-205 -17 -400 -86 -487 -171 -59 -58 -88 -124 -100
-231 -20 -177 15 -301 113 -401 59 -60 101 -85 286 -167 445 -200 483 -219
518 -264 42 -53 54 -219 21 -273 -30 -49 -147 -69 -209 -37 -37 19 -50 78 -50
235 l0 119 -307 3 c-170 2 -318 2 -330 0 -22 -3 -23 -7 -23 -112 0 -185 40
-315 117 -380 57 -47 189 -108 295 -134 269 -69 663 -59 899 23 231 79 298
164 306 391 8 194 -41 352 -130 422 -23 18 -48 38 -55 45 -25 24 -337 171
-496 234 -251 99 -288 132 -287 260 0 83 15 113 66 135 68 28 146 11 165 -36
7 -16 13 -73 14 -127 l2 -98 332 -3 332 -2 0 87 c-1 168 -41 285 -117 335 -71
47 -88 55 -163 81 -191 65 -436 88 -712 66z"/>
<path d="M9205 10299 c-124 -13 -275 -52 -362 -93 -144 -69 -205 -163 -219
-342 -12 -149 21 -263 102 -353 64 -71 116 -101 407 -231 371 -166 396 -179
423 -232 25 -48 36 -143 24 -203 -15 -74 -44 -98 -123 -103 -129 -8 -147 20
-147 228 l0 140 -337 0 -336 0 6 -122 c14 -260 64 -355 230 -435 69 -34 200
-76 292 -93 95 -18 378 -24 502 -11 211 22 405 88 493 167 60 54 88 116 102
227 13 107 2 241 -29 327 -23 66 -75 134 -138 183 -66 50 -271 150 -475 232
-295 119 -324 143 -325 269 0 85 18 120 73 143 48 20 117 12 146 -16 19 -19
21 -35 24 -136 l4 -115 334 0 334 0 0 73 c-1 94 -22 213 -48 264 -53 103 -193
173 -429 213 -134 23 -400 33 -528 19z"/>
<path d="M6740 9372 l0 -898 33 2 c17 1 180 2 360 3 l328 1 -2 373 c-1 204 -1
377 0 382 1 6 15 -24 30 -65 146 -387 232 -612 246 -647 l17 -43 361 -2 c199
-2 365 -1 369 2 3 3 -36 97 -88 210 -53 113 -127 275 -166 360 -38 85 -96 212
-129 282 l-59 127 206 405 206 406 -337 -2 -336 -3 -120 -260 c-66 -143 -136
-297 -156 -342 -19 -46 -38 -83 -42 -83 -4 0 -6 154 -6 343 l0 342 -357 3
-358 2 0 -898z"/>
<path d="M10410 10055 l0 -215 215 0 215 0 0 -679 c0 -626 1 -680 17 -683 9
-2 171 -2 360 0 l343 3 0 679 0 680 213 2 212 3 3 213 2 212 -790 0 -790 0 0
-215z"/>
<path d="M9410 9845 c0 -25 5 -45 10 -45 6 0 10 20 10 45 0 25 -4 45 -10 45
-5 0 -10 -20 -10 -45z"/>
<path d="M5570 9838 c0 -7 5 -20 10 -28 8 -12 10 -9 10 13 0 15 -4 27 -10 27
-5 0 -10 -6 -10 -12z"/>
<path d="M6480 9735 l0 -115 -232 -2 -233 -3 89 -43 c114 -56 206 -112 266
-162 l48 -40 101 0 101 0 0 240 0 240 -70 0 -70 0 0 -115z"/>
<path d="M2576 9830 l-549 -5 71 -50 c95 -67 741 -540 1317 -965 50 -37 182
-134 295 -217 113 -82 307 -224 431 -314 124 -91 231 -169 239 -174 7 -4 68
-16 136 -26 287 -42 518 -158 646 -326 72 -92 118 -203 118 -279 0 -27 8 -38
48 -66 26 -19 53 -37 60 -42 9 -6 12 55 12 291 l0 298 -51 35 c-28 19 -56 40
-62 45 -7 6 -43 33 -82 61 -38 28 -149 109 -245 179 -96 71 -326 239 -510 373
-184 135 -405 298 -492 361 -86 64 -224 166 -307 226 -83 61 -151 113 -151
118 0 4 309 7 686 7 l686 0 -59 64 c-33 36 -71 90 -87 121 -29 60 -56 179 -56
251 l0 44 -772 -2 c-425 -2 -1020 -5 -1322 -8z"/>
<path d="M12100 9785 l0 -55 -215 0 -215 0 0 -185 0 -185 605 0 c333 0 605 -4
605 -8 0 -5 -93 -77 -207 -160 -226 -165 -647 -474 -865 -635 l-138 -101 0
-48 0 -48 -66 0 c-64 0 -69 -2 -133 -49 -119 -87 -536 -394 -540 -398 -2 -1 1
-13 7 -26 7 -12 52 -110 102 -217 49 -107 95 -195 102 -195 10 0 14 63 16 293
l2 292 393 0 393 0 64 48 c101 75 260 191 372 271 60 44 150 124 218 193 113
117 116 118 160 118 41 0 55 8 155 82 61 45 173 127 250 183 77 55 210 153
295 216 85 63 321 236 523 385 l368 269 -603 6 c-332 3 -838 7 -1125 8 l-523
1 0 -55z"/>
<path d="M10320 9675 l0 -55 -237 0 -238 -1 130 -67 c133 -69 199 -111 247
-156 l27 -26 241 0 240 0 0 180 0 180 -205 0 -205 0 0 -55z"/>
<path d="M12612 8416 c-82 -88 -161 -174 -176 -189 -14 -15 -26 -29 -26 -30 0
-1 91 -1 203 0 l204 3 94 53 c194 111 507 293 530 308 22 15 0 16 -328 17
l-351 0 -150 -162z"/>
<path d="M4025 7984 c-16 -2 -66 -9 -110 -15 -120 -16 -249 -55 -354 -106
-121 -60 -235 -167 -280 -263 -53 -114 -56 -158 -56 -815 0 -652 2 -681 55
-793 47 -100 160 -207 281 -266 201 -97 402 -132 709 -123 406 13 664 114 817
320 66 91 82 157 95 397 12 243 4 1021 -12 1130 -39 267 -267 446 -655 516
-86 15 -422 28 -490 18z m261 -399 c50 -32 49 -23 49 -780 0 -779 1 -770 -59
-806 -66 -40 -176 -13 -193 48 -5 15 -8 355 -8 755 0 722 0 727 21 755 38 52
133 66 190 28z"/>
<path d="M8555 7980 c-268 -29 -486 -117 -613 -250 -86 -89 -119 -158 -138
-285 -31 -206 -27 -1182 6 -1350 33 -171 197 -334 415 -413 168 -61 362 -86
608 -79 251 7 418 42 582 123 155 75 277 214 309 351 40 167 42 1265 3 1425
-24 97 -65 164 -148 242 -141 133 -325 205 -601 235 -107 12 -314 12 -423 1z
m281 -385 c70 -29 69 -15 72 -705 3 -601 -4 -815 -28 -861 -26 -47 -131 -64
-186 -30 -60 36 -59 28 -59 791 0 531 3 705 13 737 10 33 20 45 55 62 50 25
85 26 133 6z"/>
<path d="M938 6795 l2 -1145 423 0 422 0 0 457 0 458 130 0 130 0 2 -440 c2
-242 3 -448 3 -457 0 -17 27 -18 420 -18 l420 0 0 1145 0 1145 -420 0 -420 0
-2 -382 -3 -383 -130 0 c-123 0 -130 1 -131 20 -1 11 -2 183 -3 383 l-1 362
-422 0 -423 0 3 -1145z"/>
<path d="M5510 6795 l0 -1145 680 0 c724 0 825 5 970 47 199 57 282 148 311
338 11 69 14 234 14 720 -1 677 -6 771 -48 867 -36 81 -118 159 -219 207 -195
92 -398 111 -1190 111 l-518 0 0 -1145z m1035 741 c66 -19 82 -54 90 -198 11
-194 0 -1135 -14 -1188 -21 -80 -66 -105 -201 -112 l-55 -3 -3 750 c-1 413 0
755 2 761 5 13 124 6 181 -10z"/>
<path d="M10080 6795 l0 -1145 355 0 355 0 2 517 3 517 132 -309 c72 -171 171
-403 219 -517 51 -121 94 -209 103 -210 8 -2 176 -2 373 0 l358 2 0 1145 0
1145 -355 0 -355 0 -2 -515 -3 -514 -52 112 c-29 62 -79 171 -112 242 -33 72
-116 252 -185 400 l-125 270 -356 3 -355 2 0 -1145z"/>
<path d="M12330 6795 l0 -1145 425 0 425 0 0 1145 0 1145 -425 0 -425 0 0
-1145z"/>
<path d="M13530 6795 l5 -1146 343 1 c188 0 347 0 352 0 7 0 10 165 10 511 -1
281 1 513 3 515 3 3 9 -8 14 -23 10 -28 233 -552 362 -852 36 -84 69 -153 74
-152 4 0 171 1 372 1 l365 0 0 1145 0 1145 -355 0 -355 0 0 -517 c0 -284 -4
-513 -8 -507 -5 5 -21 37 -36 71 -15 34 -49 108 -75 165 -27 57 -60 128 -74
158 -14 30 -70 152 -124 270 -55 118 -115 248 -133 288 l-33 72 -356 0 -356 0
5 -1145z"/>
<path d="M10898 5774 l-3 -239 -171 -5 -170 -5 84 -260 c90 -280 195 -609 317
-990 42 -132 91 -284 109 -337 18 -54 28 -98 23 -98 -5 0 -78 51 -164 113
-136 98 -389 280 -553 397 -30 21 -122 88 -205 148 -82 59 -253 182 -380 273
-126 91 -311 224 -410 295 -99 72 -268 193 -375 271 l-195 140 -158 11 c-300
22 -502 81 -670 194 l-58 39 -62 -44 c-75 -53 -782 -561 -817 -587 -32 -24
-530 -382 -595 -428 -27 -20 -122 -88 -210 -151 -88 -64 -244 -177 -348 -251
-103 -74 -209 -151 -235 -170 -27 -19 -98 -70 -158 -112 -60 -43 -130 -94
-156 -113 -27 -19 -48 -31 -48 -26 0 7 68 224 123 391 8 25 45 140 82 255 81
257 208 653 280 875 l53 165 -214 3 -214 2 0 112 c0 61 -2 109 -5 106 -4 -4
-103 -310 -320 -993 -40 -126 -82 -257 -93 -290 -11 -33 -48 -148 -82 -255
-61 -193 -137 -431 -306 -955 -47 -148 -113 -355 -146 -459 -33 -104 -62 -196
-65 -204 -3 -8 43 22 103 65 60 44 165 120 234 170 402 289 563 405 624 449
38 27 153 110 256 184 103 74 266 191 361 259 96 69 208 150 250 180 42 31
145 106 230 167 85 61 332 238 549 394 217 156 492 354 610 439 630 455 586
424 602 415 13 -7 587 -419 878 -629 183 -132 537 -387 735 -528 163 -117 710
-511 838 -603 48 -35 126 -93 175 -128 48 -34 121 -87 163 -117 124 -88 332
-237 514 -369 313 -227 488 -351 491 -348 3 3 -34 120 -236 748 -111 347 -304
951 -355 1110 -38 123 -202 633 -320 1000 -26 80 -76 237 -111 350 -36 112
-67 206 -69 209 -3 2 -6 -104 -7 -235z"/>
<path d="M13772 5430 c-25 -29 -64 -59 -93 -72 l-49 -23 0 -57 0 -58 43 17
c23 9 54 25 69 35 14 10 29 18 32 18 3 0 6 -76 6 -170 l0 -170 70 0 70 0 0
265 0 265 -52 0 c-51 -1 -55 -3 -96 -50z"/>
<path d="M14227 5469 c-90 -14 -147 -82 -147 -175 0 -132 148 -219 244 -143
13 10 27 19 31 19 9 0 -2 -65 -17 -103 -17 -45 -90 -49 -103 -6 -6 18 -12 19
-68 13 -34 -3 -65 -9 -69 -13 -12 -11 29 -70 63 -90 44 -27 119 -35 181 -21
38 10 62 24 94 55 52 53 69 115 62 238 -4 73 -9 93 -34 133 -16 26 -41 56 -55
66 -31 24 -117 36 -182 27z m97 -100 c22 -17 26 -28 26 -70 0 -116 -124 -123
-137 -7 -5 40 -2 50 20 72 32 31 56 33 91 5z"/>
<path d="M14577 5464 c-4 -4 -7 -31 -7 -61 l0 -53 125 0 c122 0 140 -5 111
-29 -50 -42 -128 -219 -142 -322 l-7 -50 69 3 c65 3 69 4 72 28 13 124 70 260
147 349 41 48 46 58 43 95 l-3 41 -201 3 c-110 1 -203 -1 -207 -4z"/>
<path d="M15109 5468 c-4 -16 -47 -274 -45 -275 1 -1 26 -6 57 -11 45 -7 60
-5 84 10 65 39 125 5 125 -72 0 -89 -96 -125 -135 -50 -13 25 -17 27 -72 22
-83 -6 -87 -10 -57 -60 38 -63 90 -87 189 -86 113 0 154 23 195 109 65 134
-48 268 -196 235 -25 -6 -48 -9 -49 -8 -2 2 0 18 2 36 l5 32 102 1 c55 1 108
2 116 3 11 1 15 14 15 56 l0 55 -167 3 c-93 1 -168 1 -169 0z"/>
<path d="M13208 5244 c-23 -14 -38 -32 -38 -44 0 -11 -7 -20 -15 -20 -10 0
-15 -10 -15 -30 0 -19 5 -30 14 -30 9 0 15 -20 19 -65 9 -95 17 -105 82 -105
54 0 55 0 55 30 0 25 -4 30 -25 30 -24 0 -25 3 -25 55 0 52 1 55 26 55 23 0
25 3 22 33 -2 24 -8 32 -23 32 -16 0 -21 8 -23 43 -2 23 -6 42 -10 41 -4 0
-24 -11 -44 -25z"/>
<path d="M12619 5167 c-19 -12 -39 -39 -48 -60 -12 -33 -12 -42 4 -82 21 -55
54 -75 127 -75 52 0 118 27 118 49 0 14 -71 24 -83 12 -18 -18 -65 -13 -76 8
-6 10 -7 21 -4 25 3 3 44 6 90 6 l83 0 0 33 c0 90 -126 141 -211 84z m109 -39
c25 -25 13 -38 -33 -38 -49 0 -53 4 -28 32 19 21 44 23 61 6z"/>
<path d="M12913 5175 c-40 -17 -52 -55 -29 -89 11 -18 32 -28 78 -38 42 -10
64 -20 66 -30 5 -24 -35 -33 -63 -14 -13 9 -40 16 -59 16 -54 0 -56 -19 -6
-53 31 -21 130 -23 169 -2 30 15 46 54 36 86 -7 23 -54 49 -87 49 -38 0 -68
11 -68 25 0 21 31 27 55 11 29 -19 96 -11 88 11 -15 39 -117 56 -180 28z"/>
<path d="M13360 4995 l0 -45 45 0 45 0 0 45 0 45 -45 0 -45 0 0 -45z"/>
</g>
</svg>
