<svg xmlns="http://www.w3.org/2000/svg" xmlns:xlink="http://www.w3.org/1999/xlink" width="167" height="86" viewBox="0 0 167 86">
    <defs>
        <path id="w1wr36yhaa" d="M30.144 16.656C28.44 11.317 26.736 5.978 25.034.637 14.007 3.005 11.127 3.897.703 7.62c2.848 2.575 4.243 3.878 6.974 6.517.657 3.398 1.02 5.09 1.811 8.459 9.244-3.278 10.89-3.824 20.657-5.939"/>
        <path id="f5krcdjn8d" d="M.208 16.656C1.911 11.317 3.616 5.978 5.318.637 16.346 3.005 19.225 3.897 29.65 7.62c-2.848 2.575-4.242 3.878-6.973 6.517-.658 3.398-1.02 5.09-1.812 8.459C11.621 19.317 9.976 18.77.208 16.656"/>
        <path id="ddd8wi3s5g" d="M.302 2.754C4.182 1.73 8.102.818 12.063.019c1.151 3.614 1.726 5.42 2.88 9.037-4.73-2.313-9.62-4.414-14.641-6.302"/>
        <path id="y279snipji" d="M14.929 2.746C11.052 1.724 7.13.81 3.17.012 2.02 3.629 1.443 5.436.289 9.05c4.73-2.313 9.622-4.417 14.64-6.305"/>
        <path id="y9o6zh07sk" d="M116.985 22.65c-35.764-8.887-72.236-8.886-107.998.008L.577 7.596c39.967-10.012 85.21-9.762 125.18.243l-8.772 14.811z"/>
        <path id="2wtc3hyqim" d="M116.986 22.65c-35.764-8.887-72.235-8.886-107.997.008L.579 7.598c39.966-10.014 85.208-9.764 125.178.24l-8.771 14.812z"/>
        <linearGradient id="xvktr1qtob" x1="21.499%" x2="63.345%" y1="50%" y2="38.637%">
            <stop offset="0%" stop-color="#C5BEA4"/>
            <stop offset="100%" stop-color="#857F67"/>
        </linearGradient>
        <linearGradient id="5oeeoybtfe" x1="83.953%" x2="28.294%" y1="56.173%" y2="40.689%">
            <stop offset="0%" stop-color="#C5BEA4"/>
            <stop offset="100%" stop-color="#857F67"/>
        </linearGradient>
    </defs>
    <g fill="none" fill-rule="evenodd">
        <g>
            <g>
                <g>
                    <path fill="#FEFEFE" d="M19.377 58.745l-4.925-8.82 1.496-.375L2.319 26.008l-.062-.131c-2.369-4.957-3.763-11.272 1.272-15.2C4.862 9.634 6.432 8.97 8.068 8.528c5.425-1.464 11.524-2.368 17.091-3.197C33.247 4.125 41.39 3.136 49.526 2.3 60.311 1.194 71.583.204 82.428.204c10.845 0 22.117.99 32.902 2.096 8.136.836 16.28 1.825 24.367 3.032 5.567.829 11.666 1.734 17.09 3.197.435.117.865.25 1.288.402 1.17.42 2.278.985 3.252 1.745 5.034 3.93 3.64 10.244 1.27 15.202l-.061.13-13.68 23.63 2.235.56-5.132 8.667c2.21.746 4.407 1.532 6.599 2.314l5.822 2.078-4.544 4.109c-2.05 1.854-4.058 3.722-6.048 5.63-.497 2.5-1.034 4.97-1.618 7.46l-.96 4.087-4.048-1.436c-3.25-1.152-6.527-2.346-9.84-3.314-2.89-.844-5.843-1.508-8.787-2.151-6.337.926-12.686 1.798-19.044 2.574-3.891.477-7.792.92-11.698 1.275-3.082.28-6.269.544-9.365.544-3.078 0-6.288-.294-9.351-.584-4.06-.384-8.116-.853-12.162-1.35-6.16-.758-12.313-1.588-18.457-2.461-2.95.643-5.906 1.308-8.8 2.153-3.314.968-6.59 2.162-9.841 3.314l-4.048 1.436-.96-4.088c-.584-2.488-1.12-4.96-1.618-7.46-1.99-1.907-3.997-3.775-6.048-5.63L6.6 63.258l5.822-2.078c2.309-.823 4.624-1.652 6.955-2.434z" transform="translate(-876 -70) translate(877 70) translate(0 .242)"/>
                    <path stroke="#000" stroke-width=".517" d="M19.377 58.745l-4.925-8.82 1.496-.375L2.319 26.008l-.062-.131c-2.369-4.957-3.763-11.272 1.272-15.2C4.862 9.634 6.432 8.97 8.068 8.528c5.425-1.464 11.524-2.368 17.091-3.197C33.247 4.125 41.39 3.136 49.526 2.3 60.311 1.194 71.583.204 82.428.204c10.845 0 22.117.99 32.902 2.096 8.136.836 16.28 1.825 24.367 3.032 5.567.829 11.666 1.734 17.09 3.197.435.117.865.25 1.288.402 1.17.42 2.278.985 3.252 1.745 5.034 3.93 3.64 10.244 1.27 15.202l-.061.13-13.68 23.63 2.235.56-5.132 8.667c2.21.746 4.407 1.532 6.599 2.314l5.822 2.078-4.544 4.109c-2.05 1.854-4.058 3.722-6.048 5.63-.497 2.5-1.034 4.97-1.618 7.46l-.96 4.087-4.048-1.436c-3.25-1.152-6.527-2.346-9.84-3.314-2.89-.844-5.843-1.508-8.787-2.151-6.337.926-12.686 1.798-19.044 2.574-3.891.477-7.792.92-11.698 1.275-3.082.28-6.269.544-9.365.544-3.078 0-6.288-.294-9.351-.584-4.06-.384-8.116-.853-12.162-1.35-6.16-.758-12.313-1.588-18.457-2.461-2.95.643-5.906 1.308-8.8 2.153-3.314.968-6.59 2.162-9.841 3.314l-4.048 1.436-.96-4.088c-.584-2.488-1.12-4.96-1.618-7.46-1.99-1.907-3.997-3.775-6.048-5.63L6.6 63.258l5.822-2.078c2.309-.823 4.624-1.652 6.955-2.434z" transform="translate(-876 -70) translate(877 70) translate(0 .242)"/>
                </g>
                <g transform="translate(-876 -70) translate(877 70) translate(13.028 56.699)">
                    <mask id="taa9txissc" fill="#fff">
                        <use xlink:href="#w1wr36yhaa"/>
                    </mask>
                    <path fill="url(#xvktr1qtob)" d="M30.144 16.656C28.44 11.317 26.736 5.978 25.034.637 14.007 3.005 11.127 3.897.703 7.62c2.848 2.575 4.243 3.878 6.974 6.517.657 3.398 1.02 5.09 1.811 8.459 9.244-3.278 10.89-3.824 20.657-5.939" mask="url(#taa9txissc)"/>
                </g>
                <g transform="translate(-876 -70) translate(877 70) translate(121.598 56.699)">
                    <mask id="5t2lousn2f" fill="#fff">
                        <use xlink:href="#f5krcdjn8d"/>
                    </mask>
                    <path fill="url(#5oeeoybtfe)" d="M.208 16.656C1.911 11.317 3.616 5.978 5.318.637 16.346 3.005 19.225 3.897 29.65 7.62c-2.848 2.575-4.242 3.878-6.973 6.517-.658 3.398-1.02 5.09-1.812 8.459C11.621 19.317 9.976 18.77.208 16.656" mask="url(#5t2lousn2f)"/>
                </g>
                <g transform="translate(-876 -70) translate(877 70) translate(28.228 64.299)">
                    <mask id="aq65okrich" fill="#fff">
                        <use xlink:href="#ddd8wi3s5g"/>
                    </mask>
                    <path d="M.302 2.754C4.182 1.73 8.102.818 12.063.019c1.151 3.614 1.726 5.42 2.88 9.037-4.73-2.313-9.62-4.414-14.641-6.302" mask="url(#aq65okrich)"/>
                </g>
                <g transform="translate(-876 -70) translate(877 70) translate(121.598 64.299)">
                    <mask id="gblinznouj" fill="#fff">
                        <use xlink:href="#y279snipji"/>
                    </mask>
                    <path d="M14.929 2.746C11.052 1.724 7.13.81 3.17.012 2.02 3.629 1.443 5.436.289 9.05c4.73-2.313 9.622-4.417 14.64-6.305" mask="url(#gblinznouj)"/>
                </g>
                <g transform="translate(-876 -70) translate(877 70) translate(19.543 44.394)">
                    <mask id="jbshgwczhl" fill="#fff">
                        <use xlink:href="#y9o6zh07sk"/>
                    </mask>
                    <path d="M116.985 22.65c-35.764-8.887-72.236-8.886-107.998.008L.577 7.596c39.967-10.012 85.21-9.762 125.18.243l-8.772 14.811z" mask="url(#jbshgwczhl)"/>
                </g>
                <path fill="#7FC600" d="M155.772 12.338c-11.815-3.189-52.529-8.191-73.344-8.191-20.816 0-61.53 5.002-73.345 8.19-3.778 1.02-7.486 3.628-3.379 12.221l24.398 42.147c1.205 2.528 3.838 5.67 7.581 6.744 0 0 34.401 5.128 44.745 5.128 11.498 0 44.744-5.128 44.744-5.128 3.744-1.075 6.113-3.891 7.58-6.744l24.399-42.147c4.108-8.593.399-11.2-3.379-12.22" transform="translate(-876 -70) translate(877 70)"/>
                <g transform="translate(-876 -70) translate(877 70) translate(19.543 44.394)">
                    <mask id="yr70zofd3n" fill="#fff">
                        <use xlink:href="#2wtc3hyqim"/>
                    </mask>
                    <path fill="#C5BEA4" d="M116.986 22.65c-35.764-8.887-72.235-8.886-107.997.008L.579 7.598c39.966-10.014 85.208-9.764 125.178.24l-8.771 14.812z" mask="url(#yr70zofd3n)"/>
                </g>
                <path fill="#151616" d="M47.57 35.324h2.768v-5.26h5.605v5.26h2.764v-12.58h-2.764v5.05h-5.605v-5.05H47.57v12.58zm14.011 0h2.116c.668.003 1.29-.003 1.862-.028.575-.023 1.112-.089 1.608-.19.494-.097.962-.259 1.392-.484.358-.192.663-.432.918-.727.257-.291.453-.622.592-.99.138-.366.208-.757.208-1.172 0-.845-.265-1.523-.795-2.033-.532-.512-1.32-.838-2.37-.991 1.809-.298 2.713-1.197 2.713-2.692-.002-.587-.141-1.105-.413-1.56-.274-.455-.66-.823-1.162-1.099-.366-.191-.764-.328-1.196-.417-.432-.089-.899-.145-1.406-.169-.505-.023-1.054-.031-1.645-.029h-2.422v12.581zm2.768-7.55V24.82h.667c.519-.003.94.04 1.27.128.332.09.576.24.737.453.157.213.237.508.234.88 0 .385-.083.685-.252.903-.168.22-.425.37-.766.462-.34.089-.765.133-1.277.129h-.613zm0 5.456v-3.379h1.119c.687.004 1.206.147 1.555.43.35.282.524.685.524 1.207 0 .567-.175.999-.526 1.294-.353.295-.885.446-1.589.448h-1.083zm19.919.036c-.621-.002-1.182-.111-1.68-.328-.498-.215-.927-.513-1.28-.898-.357-.382-.631-.827-.821-1.335-.19-.506-.283-1.055-.286-1.644.003-.583.103-1.134.297-1.64.198-.51.473-.955.836-1.344.358-.386.79-.689 1.283-.909.498-.216 1.05-.327 1.65-.331.594.004 1.141.115 1.635.331.49.22.918.523 1.28.909.361.39.639.834.837 1.343.196.507.296 1.058.299 1.64-.003.59-.1 1.139-.295 1.645-.194.508-.47.953-.83 1.335-.355.385-.78.683-1.277.898-.494.217-1.044.326-1.648.328zm6.888-4.205c0-.596-.076-1.167-.226-1.722-.152-.553-.376-1.079-.676-1.572-.294-.496-.664-.953-1.106-1.37-.436-.414-.916-.763-1.441-1.05-.526-.286-1.077-.507-1.657-.656-.582-.153-1.176-.229-1.782-.229-.606 0-1.199.076-1.784.229-.584.15-1.142.37-1.67.656-.525.287-1.008.636-1.445 1.05-.66.629-1.16 1.339-1.497 2.127-.337.788-.508 1.636-.508 2.537 0 .67.096 1.315.287 1.928.194.615.478 1.189.85 1.72.375.532.831 1.012 1.375 1.437.418.32.864.598 1.34.821.476.226.97.395 1.484.515.514.117 1.038.178 1.568.178.606 0 1.196-.078 1.773-.225.574-.149 1.126-.368 1.65-.657.524-.286 1.009-.638 1.457-1.055.435-.407.802-.855 1.101-1.35.297-.49.525-1.02.675-1.578.154-.555.232-1.133.232-1.734zm1.267 4.784c.14.373.374.694.7.964.33.27.733.48 1.217.626.485.147 1.03.22 1.641.225.775-.005 1.435-.121 1.986-.348.549-.227.968-.547 1.26-.955.292-.409.44-.883.444-1.425 0-.443-.095-.824-.287-1.144-.19-.32-.478-.598-.868-.833-.389-.236-.875-.442-1.466-.628-.422-.131-.788-.249-1.088-.354-.302-.109-.534-.232-.694-.37-.163-.138-.243-.32-.243-.542.003-.24.116-.438.336-.583.225-.148.527-.223.91-.226.374 0 .682.081.93.245.243.164.416.405.516.722l1.844-.897c-.17-.367-.41-.676-.72-.935-.307-.262-.675-.463-1.104-.599-.425-.138-.9-.209-1.43-.209-.756.006-1.403.128-1.945.364-.543.237-.959.567-1.248.98-.29.411-.437.886-.44 1.42 0 .416.106.776.31 1.074.206.302.51.564.91.792.405.234.901.453 1.492.668.289.101.547.19.78.264.228.073.425.148.585.223.163.081.282.178.369.292.086.114.128.264.128.452-.003.258-.117.46-.347.603-.229.148-.553.22-.974.223-.426-.002-.783-.1-1.055-.29-.277-.186-.45-.442-.516-.765l-1.933.966zm9.398 1.48h2.514v-6.51h1.211v-1.919h-1.21v-2.799h-2.515v2.8h-1.21v1.918h1.21v6.51zm7.7-6.264l.054-2.165H107.1v8.428h2.514v-3.712c-.005-.562.063-1.026.198-1.392.138-.372.364-.644.678-.82.316-.181.741-.27 1.273-.27.209 0 .407.019.602.057.194.035.385.095.574.174l.38-2.64c-.181-.028-.35-.055-.504-.074-.156-.02-.3-.031-.437-.031-.704 0-1.292.2-1.767.609-.475.404-.836 1.017-1.09 1.836zm14.048 2.076c-.004-.646-.121-1.244-.354-1.793-.23-.546-.56-1.022-.988-1.434-.427-.406-.937-.724-1.528-.95-.586-.227-1.241-.343-1.958-.344-.71 0-1.364.12-1.956.35-.59.231-1.098.555-1.53.965-.43.414-.764.892-1 1.438-.234.543-.356 1.133-.358 1.768.002.632.12 1.222.35 1.768.233.545.56 1.024.99 1.436.426.412.936.734 1.528.966.59.232 1.251.348 1.976.353.715-.005 1.363-.121 1.952-.35.588-.225 1.099-.545 1.526-.955.43-.409.76-.888.993-1.435.236-.548.353-1.141.357-1.783zm-2.568-.017c-.003.46-.098.858-.28 1.2-.186.336-.449.6-.788.784-.339.188-.743.282-1.21.285-.466-.003-.871-.097-1.208-.285-.339-.184-.602-.448-.79-.785-.183-.34-.276-.74-.28-1.2.004-.456.094-.851.278-1.188.184-.334.441-.595.784-.782.34-.186.744-.278 1.217-.281.472.003.875.095 1.217.28.34.188.599.449.782.783.186.337.275.732.278 1.189zm6.598 4.204h2.512l3.562-8.428h-2.855l-1.483 4.294c-.104.298-.195.612-.265.938-.073.329-.133.671-.187 1.032-.036-.334-.092-.658-.17-.968-.075-.31-.164-.615-.265-.915l-1.462-4.38h-2.911l3.524 8.427zM40.837 30.917l-1.37 2.734-1.29-.574c.662-1.476 1.384-2.772 2.046-4.245-1.801-1.365-3.08-3.04-3.303-4.76-.236-1.852.422-3.75 1.777-5.072.824-.805 1.873-1.34 3.062-1.585 1.38-.284 2.673-.033 4.064.693.363.187.732.407 1.107.66l1.146-.919c-.713-.64-1.499-1.14-2.355-1.503-1.553-.657-3.036-.769-4.69-.398-1.901.431-3.559 1.596-4.612 3.198-1.078 1.64-1.465 3.664-.998 5.68.294 1.264.937 2.478 1.921 3.624.346.398.715.786 1.1 1.17l-1.933 3.964 3.628 1.622 1.782-3.679-1.082-.61zM30.745 25.75c1.104 0 2.005.879 2.005 1.951 0 1.075-.901 1.952-2.005 1.952-1.103 0-2.005-.877-2.005-1.952 0-1.072.902-1.95 2.005-1.95M42.018 52.097L42.464 54.881 44.669 54.545 44.222 51.761 46.044 51.482 47.248 58.986 45.426 59.266 44.95 56.303 42.747 56.641 43.222 59.603 41.401 59.88 40.195 52.376zM50.019 56.86l-.156 1.787-1.888.237.992-7.777 2.425-.303 3.018 7.277-1.971.246-.662-1.688-1.758.22zm1.31-1.676l-.49-1.313c-.157-.411-.368-1.01-.528-1.444l-.02.003c-.043.458-.063 1.087-.108 1.524l-.117 1.387 1.263-.157zM56.264 57.9l-2.97-7.337 2.006-.202 1.045 2.897c.303.83.573 1.64.848 2.589l.02-.002c.064-.936.164-1.83.28-2.67l.42-3.078 1.945-.196-1.426 7.78-2.168.22zM60.744 49.846L62.582 49.703 63.063 55.572 65.693 55.365 65.833 57.061 61.364 57.409zM68.037 49.327l.498 7.571-1.84.116-.499-7.572 1.841-.115zm.806-1.876l-1.127 1.49-1.465.09.731-1.466 1.861-.114zM74.88 56.384c-.247.157-.89.356-1.705.393-2.566.118-3.781-1.596-3.879-3.61-.13-2.665 1.577-4.108 3.623-4.202.784-.035 1.434.104 1.726.249l-.279 1.624c-.301-.122-.735-.237-1.284-.21-1.05.046-1.932.773-1.858 2.316.066 1.371.851 2.192 2.114 2.135.438-.02.932-.134 1.211-.27l.331 1.575zm-3.105-7.66l-1.077-1.37 1.232-.056.491.642h.02l.416-.685 1.232-.056-.94 1.464-1.374.062zM75.652 48.963l1.822-.042.081 3.22h.02c.136-.285.281-.57.418-.844l1.262-2.418 2.262-.053-2.099 3.283 2.372 4.304-2.128.05-1.524-3.04-.53.79.058 2.298-1.823.043-.191-7.59zM84.292 48.815l-.034 4.312c-.01 1.148.341 1.793 1.064 1.798.733.005 1.094-.578 1.105-1.783l.034-4.312 1.842.014-.033 4.189c-.019 2.342-1.087 3.515-3.012 3.501-1.872-.013-2.862-1.158-2.842-3.59l.033-4.143 1.843.014zm1.13-2.436c.825.006 1.217.516 1.212 1.158-.005.63-.446 1.122-1.24 1.116-.795-.005-1.24-.516-1.235-1.124.006-.63.438-1.155 1.253-1.15h.01zm-.045.642c-.277-.002-.421.255-.423.503-.001.249.149.486.423.488.296.002.45-.211.454-.483 0-.258-.16-.506-.445-.508h-.01zM91.092 56.47l-1.988-7.642 2.016.048.657 3.003c.194.86.354 1.699.504 2.67l.02.001c.186-.92.401-1.792.626-2.61l.819-3 1.956.05-2.432 7.533-2.178-.053zM98.648 49.226c.422-.068 1.331-.096 2.175-.05.977.051 1.562.164 2.074.484.523.31.878.873.835 1.614-.036.63-.386 1.23-1.21 1.525l-.001.023c.82.304 1.289 1.017 1.236 1.916-.042.721-.389 1.266-.868 1.625-.535.398-1.402.6-2.867.52-.834-.047-1.44-.136-1.801-.234l.427-7.423zm1.472 6.15c.13.03.294.039.528.051.61.034 1.143-.209 1.182-.884.037-.64-.478-.916-1.17-.955l-.436-.025-.104 1.812zm.186-3.252l.367.02c.782.044 1.176-.24 1.205-.724.024-.437-.264-.735-.884-.77-.305-.016-.478-.003-.603.014l-.085 1.46zM105.217 49.608c.526-.05 1.314-.066 2.227.005 1.047.08 1.784.297 2.268.776.406.405.594.96.535 1.69-.077.945-.77 1.554-1.318 1.738l-.002.035c.428.258.642.76.761 1.425.14.79.274 1.908.382 2.21l-1.869-.147c-.082-.231-.216-.829-.334-1.788-.11-.91-.347-1.123-.916-1.168l-.294-.021-.233 2.838-1.817-.142.61-7.45zm1.56 3.295l.477.037c.691.055 1.116-.284 1.163-.846.046-.56-.263-.913-.872-.96-.345-.027-.53-.02-.623-.005l-.146 1.774zM113.708 57.975c-2.118-.218-3.09-2.096-2.863-4.192.239-2.193 1.725-3.806 3.823-3.59 2.196.228 3.115 2.146 2.895 4.161-.263 2.43-1.748 3.84-3.846 3.623l-.009-.002zm.265-1.591c.881.091 1.5-.797 1.65-2.162.14-1.3-.279-2.34-1.17-2.432-.882-.09-1.526.84-1.668 2.15-.158 1.351.286 2.35 1.169 2.441l.019.003zM119.099 50.908c.6-.035 1.386.01 2.194.118 1.301.17 2.096.514 2.69 1.114.668.668 1.022 1.668.829 3.051-.215 1.54-.878 2.466-1.612 2.948-.838.55-1.996.681-3.33.507-.877-.115-1.452-.26-1.796-.373l1.025-7.365zm1.004 6.155c.086.033.258.055.379.073 1.178.177 2.157-.434 2.393-2.13.204-1.473-.496-2.271-1.586-2.412-.282-.038-.467-.04-.561-.03l-.625 4.499z" transform="translate(-876 -70) translate(877 70)"/>
            </g>
        </g>
    </g>
</svg>
