<?xml version="1.0" encoding="UTF-8" standalone="no"?>
<svg
   xmlns:dc="http://purl.org/dc/elements/1.1/"
   xmlns:cc="http://creativecommons.org/ns#"
   xmlns:rdf="http://www.w3.org/1999/02/22-rdf-syntax-ns#"
   xmlns:svg="http://www.w3.org/2000/svg"
   xmlns="http://www.w3.org/2000/svg"
   xmlns:sodipodi="http://sodipodi.sourceforge.net/DTD/sodipodi-0.dtd"
   xmlns:inkscape="http://www.inkscape.org/namespaces/inkscape"
   version="1.1"
   id="svg2"
   xml:space="preserve"
   width="2449.3333"
   height="1320"
   viewBox="0 0 2449.3333 1320"
   sodipodi:docname="SF SKK El Niеo Praha.eps"><metadata
     id="metadata8"><rdf:RDF><cc:Work
         rdf:about=""><dc:format>image/svg+xml</dc:format><dc:type
           rdf:resource="http://purl.org/dc/dcmitype/StillImage" /></cc:Work></rdf:RDF></metadata><defs
     id="defs6" /><sodipodi:namedview
     pagecolor="#ffffff"
     bordercolor="#666666"
     borderopacity="1"
     objecttolerance="10"
     gridtolerance="10"
     guidetolerance="10"
     inkscape:pageopacity="0"
     inkscape:pageshadow="2"
     inkscape:window-width="640"
     inkscape:window-height="480"
     id="namedview4" /><g
     id="g10"
     inkscape:groupmode="layer"
     inkscape:label="ink_ext_XXXXXX"
     transform="matrix(1.3333333,0,0,-1.3333333,0,1320)"><g
       id="g12"
       transform="scale(0.1)"><path
         d="m 9376.8,9179.06 v -22.5 c 0,-3.63 -59.82,-213.5 -61.63,-215.87 -29.33,-38.55 -149.73,-52.87 -206.97,-70.53 -137.63,-42.44 -291.13,-91.37 -431.84,-130.66 -274.52,-76.65 -595,-173.9 -849.16,-275.84 C 7277.28,8243.13 6766.81,8038.89 6256.8,7784.06 5743.58,7527.61 5290.32,7265.78 4809.53,6981.33 4575.59,6842.93 4351.47,6686.84 4116.74,6549.13 3897.23,6420.34 3645.61,6245.15 3444.3,6096.56 2992.85,5763.32 2645.61,5436.63 2253.67,5044.7 2086,4877.04 1892.59,4618.04 1749.35,4424.01 c -79.03,-107.07 -162.16,-209.47 -243.17,-319.33 -38.75,-52.57 -77.6,-111.18 -118.71,-158.79 -42.86,-49.66 -78.93,-119.34 -121.26,-163.74 -44.57,-46.73 -196.32,-268.61 -231.87,-330.63 C 963.473,3327.88 899.824,3217.8 834.414,3088.95 773.082,2968.13 704.008,2841.69 649.207,2711.65 622.52,2648.32 592.574,2581.63 564.301,2519.06 536.297,2457.08 511.121,2374.23 481.781,2316.58 428.043,2210.99 380.066,2024.89 334.855,1901 284.469,1762.92 234.805,1629.84 188.027,1485.33 119.27,1272.95 9.30078,809.031 9.30078,539.059 v -157.5 c 0,-89.7 58.43752,-322.5004 127.50022,-322.5004 82.793,0 337.051,400.5934 390.004,480.0004 121.207,181.757 214.996,347.679 317.527,552.471 95.848,191.44 175.768,407.24 247.688,622.31 36.87,110.26 72.02,217.83 103.83,331.17 13.79,49.13 68.67,324.05 110.95,324.05 24.38,0 5.66,-6.5 37.5,-15 0,-107.05 -150.41,-551.58 -186.57,-660.93 -67.66,-204.7 -147.34,-424.99 -238.289,-609.21 C 824.332,891.262 729.023,714.859 613.816,542.047 556.352,455.852 500.508,372.012 439.797,288.563 417.141,257.426 258.773,51.4375 256.805,44.0586 526.258,66.4805 956.629,899.898 1062.41,1165.95 c 91.08,229.08 186.35,462.14 254.78,712.72 52.96,193.9 154.61,588.36 154.61,812.89 v 239.99 c 0,128.45 -67.98,322.51 -195,322.51 -98.42,0 -145.2,-63.22 -210,-97.51 30.35,113.67 510.73,604.5 616.87,710.64 224.58,224.59 451.4,436.41 675,660 221.59,221.6 481.64,412.47 740.74,594.26 133.66,93.78 257.68,177.76 401.9,265.6 139.02,84.68 285.79,160.48 421.48,246.02 124.46,78.47 296.9,157.45 433.98,226.02 151.18,75.61 298.42,141.6 450,217.5 138.29,69.23 315.28,153.98 459.25,208.25 58.58,22.09 166.3,74.32 225.78,104.21 74.75,37.57 158.81,64.22 235.12,102.39 253.72,126.9 681.04,286.21 981.49,353.51 188.54,42.24 364.16,74.38 562.48,105.01 99.87,15.43 204.56,10.73 304.24,25.77 79.73,12.03 226.44,20.83 316.67,20.83 h 210 c 666.86,0 1089.91,-485.64 1330.08,-919.92 62.33,-112.71 138.68,-255.58 185.94,-376.57 24.65,-63.12 54.4,-129.26 78.36,-199.13 23.84,-69.48 40.79,-153.29 66.91,-218.09 53.55,-132.88 176.21,-777.01 176.21,-956.3 v -172.49 c 0,-25.86 -5.55,-29.04 -7.5,-52.51 H 2619.3 l -90,-254.99 14306.3,1.11 -71.3,253.88 h -2805 c -56,0 -590.9,622.33 -665.3,707.16 -224.2,255.58 -394,498.4 -569.7,802.8 -87.8,152.06 -357,801.04 -377.7,994.82 -8,74.36 -38.7,191.83 -54.1,283.38 -15.5,91.57 -19.8,211.09 -39,306.07 -10.7,52.95 -27,264.72 -26.7,318.25 0.6,117.02 -7.5,215.5 -7.5,337.53 v 7.5 c 0,150.04 17.4,204.49 112.4,262.56 49,29.9 206,91.26 270.6,104.45 224.1,45.81 398.7,75.49 674.5,75.49 h 150 c 444.2,0 855.5,-112.43 1198.5,-219.05 318.4,-99 683.2,-309.83 914.4,-503.01 136.7,-114.12 252.1,-199.25 379,-326.08 95.8,-95.81 241,-279.15 317.6,-394.86 90.8,-137.16 175.6,-304.87 250.6,-454.45 39.5,-78.88 69.6,-161.63 109.8,-242.69 15.9,-32.3 93,-244.86 115.1,-244.86 h 22.5 c 0,98.23 -166,679.88 -202.5,779.99 -89.6,245.51 -182.8,470.35 -313.4,676.61 -264.2,417.37 -566.9,732.12 -955.3,1024.65 -713.3,537.16 -1823,886.24 -3073.8,886.24 l -195.1,2.98 -478.3,-18.4 -9.1,-29.58 c 315.3,-595.92 421.5,-1470.33 -66.8,-2003.2 -75.4,-82.28 -335.2,-306.79 -473.2,-306.79 7.6,10.4 204.5,118.59 257,170.51 77.2,76.47 137.5,146.31 192.9,242.11 89.4,154.62 187.6,432.82 187.6,674.87 v 165.01 c 0,416.3 -200.5,878.05 -378,1122.01 -107.2,147.35 -226.3,270.72 -370.7,379.29 -112.7,84.73 -356,208.7 -548.8,208.7 h -120 c -202.28,0 -416.3,-134.4 -519.39,-238.11 -57.4,-57.77 -123.39,-143.72 -165.57,-216.93 -26.08,-45.27 -38.07,-80.45 -62.43,-125.07 -13.93,-25.52 -43.3,-124.6 -62.61,-132.39"
         style="fill:#231f20;fill-opacity:1;fill-rule:evenodd;stroke:none"
         id="path14" /><path
         d="m 8769.3,876.559 v -180 c 0,-213.457 85.12,-404.438 193.14,-511.868 C 9096.28,51.5703 9235.87,6.55469 9496.8,6.55469 c 411.68,0 652.5,331.15231 652.5,750.00431 v 120 c 0,410.121 -224.99,757.501 -630,757.501 h -97.5 c -387.23,0 -652.5,-376.58 -652.5,-757.501"
         style="fill:#ed1c24;fill-opacity:1;fill-rule:evenodd;stroke:none"
         id="path16" /><path
         d="m 13294.8,27.6797 475.7,0.793 c -65,122.7773 -148.4,282.2383 -222.2,399.5973 -45.3,71.989 -67.7,113.59 -120.1,179.879 -73.8,93.34 -112.6,109.262 -173.9,126.11 133.3,31.043 270,148.554 270,307.491 v 120.01 c 0,247.74 -205.2,450 -465,450 h -765 L 12436.8,29.0586 h 412.5 l -2.4,22.2656 -57.6,622.7348 h 45 c 121.3,0 209.6,-198.817 257.5,-290.043 60.7,-115.789 130.8,-241.532 203,-356.3363"
         style="fill:#ed1c24;fill-opacity:1;fill-rule:evenodd;stroke:none"
         id="path18" /><path
         d="m 7192.11,29.25 399.69,-0.1914 0.55,22.457 69.31,833.7734 440.14,-856.2304 405.77,-0.0391 66.73,1447.5405 v 135 l -375.69,0.04 -49.5,-862.674 -7.25,-2.367 L 7711.8,1611.56 7331.14,1611.4 7192.11,29.25"
         style="fill:#ed1c24;fill-opacity:1;fill-rule:evenodd;stroke:none"
         id="path20" /><path
         d="m 4847.85,51.3867 -1.05,-22.3281 397.1,0.0586 127.9,854.9418 405,-855.0004 381.72,0.0937 188.28,1582.4077 -374.54,-0.06 -112.96,-862.441 -375,862.501 -380.25,-0.37 -256.2,-1559.8033"
         style="fill:#ed1c24;fill-opacity:1;fill-rule:evenodd;stroke:none"
         id="path22" /><path
         d="m 15421.8,29.0586 407.3,0.4375 -114.8,644.5629 447.1,-0.614 130.4,-644.3864 429.4,0.4258 -346.9,1582.0756 -404.7,0.05 104.7,-547.55 h -442.5 l -97.5,547.5 h -405 L 15421.8,29.0586"
         style="fill:#ed1c24;fill-opacity:1;fill-rule:evenodd;stroke:none"
         id="path24" /><path
         d="m 13786.8,29.2227 418.1,0.0546 24.4,224.7817 v 37.5 h 487.5 c 7.3,-31.434 38.4,-102.36 52.3,-135.153 8.5,-20.004 47.7,-127.3474 67.7,-127.3474 l 428.9,0.6914 -758.9,1581.81 -435.5,-1.32 -284.5,-1581.0173"
         style="fill:#ed1c24;fill-opacity:1;fill-rule:evenodd;stroke:none"
         id="path26" /><path
         d="m 16861.8,29.0586 434.1,0.1328 8.4,262.3676 h 465 l 146.8,-263.0707 444,-0.3594 -920.5,1579.2111 -442.8,4.22 -135,-1582.5014"
         style="fill:#ed1c24;fill-opacity:1;fill-rule:evenodd;stroke:none"
         id="path28" /><path
         d="m 1531.38,29.1758 1162.03,0.082 75.89,359.8012 -723.35,1.586 13.48,37.195 72.37,276.219 646.15,-0.278 73.85,322.779 -632.88,0.65 55.38,246.85 687.97,0.48 77.03,337.02 -1077.36,-0.72 L 1531.38,29.1758"
         style="fill:#ed1c24;fill-opacity:1;fill-rule:evenodd;stroke:none"
         id="path30" /><path
         d="m 10974.3,1469.06 52.5,-1357.501 V 29.0586 l 429.8,0.1289 -32.3,592.3715 h 292.5 c 247.8,0 397.5,180.566 397.5,435.001 v 74.99 c 0,252.26 -179.5,480.01 -435,480.01 h -705 v -142.5"
         style="fill:#ed1c24;fill-opacity:1;fill-rule:evenodd;stroke:none"
         id="path32" /><path
         d="m 2920.63,32.293 1041.17,-1.4024 120,389.9964 -652.21,1.535 247.21,1183.468 H 3279.3 L 2920.63,32.293"
         style="fill:#ed1c24;fill-opacity:1;fill-rule:evenodd;stroke:none"
         id="path34" /><path
         d="m 6152.26,2301.48 412.04,0.07 c 224.36,0 367.5,141.35 367.5,360 v 30.01 c 0,140.87 -92.5,147.23 -127.5,194.99 92.58,24.72 157.5,163.23 157.5,285.01 v 15 c 0,109.99 -78.92,202.5 -195,202.5 l -433.65,-0.23 -180.89,-1087.35"
         style="fill:#2e3192;fill-opacity:1;fill-rule:evenodd;stroke:none"
         id="path36" /><path
         d="M 6458.02,29.2031 6886.8,29.0586 6886.07,51.6289 7036.8,1611.56 6635.85,1611.1 6458.02,29.2031"
         style="fill:#ed1c24;fill-opacity:1;fill-rule:evenodd;stroke:none"
         id="path38" /><path
         d="m 16422.2,2302.47 244.6,-0.92 c -14.1,60.4 -82.5,215.99 -82.5,270 l 67.5,172.51 322.5,-442.51 286.5,1.18 -529.9,679.99 130.9,406.34 h -292.5 l -125.2,-406.7 -129.8,406.7 -235.9,-1.08 343.8,-1085.51"
         style="fill:#2e3192;fill-opacity:1;fill-rule:evenodd;stroke:none"
         id="path40" /><path
         d="m 9287.15,2301.46 232.15,0.09 52.5,180 281.46,-0.69 33.54,-179.31 h 262.5 l -322.5,1087.51 -233.83,-1.74 -305.82,-1085.86"
         style="fill:#2e3192;fill-opacity:1;fill-rule:evenodd;stroke:none"
         id="path42" /><path
         d="m 13393,2301.23 251.3,0.32 v 180 l 281,-1.61 71.5,-178.39 h 255 l -525,1087.51 -236,-0.36 -97.8,-1087.47"
         style="fill:#2e3192;fill-opacity:1;fill-rule:evenodd;stroke:none"
         id="path44" /><path
         d="m 11559.3,2286.56 c 186.4,0 300,133.81 300,315 l 1.7,127.68 -69.2,659.82 -228.8,-0.35 63.8,-704.65 c 6.2,-68.41 -42,-142.5 -112.5,-142.5 h -30 c -124.6,0 -137.5,239.93 -142.6,367.4 l -37.4,480.1 h -232.5 c 1.1,-47.6 13.6,-132.03 15.2,-179.8 1.7,-49.37 1.9,-143.65 7.8,-194.67 13.2,-113.16 19.4,-252.72 36.3,-361.28 36.9,-238.32 152.2,-366.75 428.2,-366.75"
         style="fill:#2e3192;fill-opacity:1;fill-rule:evenodd;stroke:none"
         id="path46" /><path
         d="m 2416.8,2969.06 c 0,-243.48 300,-195.04 300,-307.51 v -29.99 c 0,-119.64 -232.5,-204.17 -232.5,-45 l -1.66,30.24 9.16,67.26 -221.25,-10.3 c -19.02,-26.46 -33.75,-99.99 -33.75,-147.21 v -45 c 0,-143.07 92.45,-194.99 232.5,-194.99 h 52.5 c 244.47,0 465,263.37 465,509.99 v 15.01 c 0,196.85 -322.5,194.38 -322.5,285 0,45.17 52.05,104.99 97.5,104.99 h 30 c 64.69,0 91.12,-84.31 67.61,-136.84 l 218.05,16.76 14.34,127.59 c 18.01,134.6 -93.59,195 -217.5,195 -246.56,0 -457.5,-198.18 -457.5,-435"
         style="fill:#2e3192;fill-opacity:1;fill-rule:evenodd;stroke:none"
         id="path48" /><path
         d="m 4689.3,3141.56 22.5,-690 v -142.5 h 255 l 532.5,1080 -234.84,-2.28 -345.1,-762.69 9.94,764.97 h -240 v -247.5"
         style="fill:#2e3192;fill-opacity:1;fill-rule:evenodd;stroke:none"
         id="path50" /><path
         d="m 12578.4,3118.93 239.7,-0.06 121.2,-817.32 248.2,0.13 -128.2,817.38 234.9,0.44 -47.4,269.56 -707.7,-0.4 39.3,-269.73"
         style="fill:#2e3192;fill-opacity:1;fill-rule:evenodd;stroke:none"
         id="path52" /><path
         d="m 3181.8,3119.06 234.43,-0.6 -249.43,-816.91 244.16,0.99 235.84,816.52 245.23,0.63 69.77,269.37 h -682.5 l -97.5,-270"
         style="fill:#2e3192;fill-opacity:1;fill-rule:evenodd;stroke:none"
         id="path54" /><path
         d="m 12067.9,2301.4 627.4,0.67 -41,269.48 h -360 l -112.5,817.51 -235.4,-0.33 121.5,-1087.33"
         style="fill:#2e3192;fill-opacity:1;fill-rule:evenodd;stroke:none"
         id="path56" /><path
         d="m 8994.3,2744.06 307.5,0.1 v 224.9 l -301.39,0.1 8.89,142.39 v 45 h 345 v 232.51 l -572.05,0.09 -50.45,-1042.6 v -45 l 248.9,-0.03 13.6,442.54"
         style="fill:#2e3192;fill-opacity:1;fill-rule:evenodd;stroke:none"
         id="path58" /><path
         d="m 7944.3,2301.55 244.45,0.22 78.05,1087.29 h -240 l -82.5,-1087.51"
         style="fill:#2e3192;fill-opacity:1;fill-rule:evenodd;stroke:none"
         id="path60" /><path
         d="m 7828.27,1718.75 243.53,-2.2 c 29.76,0 211.39,267.61 232.5,307.51 l -215.82,-1.2 -120.43,-163.1 -91.25,164.3 -217.84,-0.19 169.31,-305.12"
         style="fill:#ed1c24;fill-opacity:1;fill-rule:evenodd;stroke:none"
         id="path62" /><path
         d="m 12756.8,973.887 167.5,0.172 c 103.5,0 195,31.041 195,135.001 v 7.5 c 0,103.25 -67.9,172.5 -172.5,172.5 l -212,-0.15 22,-315.023"
         style="fill:#ffffff;fill-opacity:1;fill-rule:evenodd;stroke:none"
         id="path64" /><path
         d="m 11411.3,936.66 95.5,-0.101 c 108.4,0 210,44.964 210,149.991 v 15.01 c 0,108.85 -69.7,187.5 -180,187.5 l -143.6,-0.06 18.1,-352.34"
         style="fill:#ffffff;fill-opacity:1;fill-rule:evenodd;stroke:none"
         id="path66" /><path
         d="m 14279.1,636.859 293.4,2.02 -224.4,547.781 -8,-2.41 -61,-547.391"
         style="fill:#ffffff;fill-opacity:1;fill-rule:evenodd;stroke:none"
         id="path68" /><path
         d="m 17310.2,636.59 296.8,1.379 -285.8,546.051 z"
         style="fill:#ffffff;fill-opacity:1;fill-rule:evenodd;stroke:none"
         id="path70" /><path
         d="m 10704.3,2459.06 60,-157.51 302.2,1.11 -339.4,677.78 7.4,3.51 179.8,292.61 67.5,112.5 -304.8,-1.52 -230.3,-396.08 -12.4,397.6 -233.9,-0.03 23.9,-1087.48 h 247.5 l 1.9,30.09 -9.1,239.7 109.1,167.22 9,0.45 121.6,-279.95"
         style="fill:#2e3192;fill-opacity:1;fill-rule:evenodd;stroke:none"
         id="path72" /><path
         d="m 15256.8,3209.06 240,-907.51 h 247.5 l -75,262.51 67.5,172.5 315,-435.01 h 285 c -7,26.41 -214.8,291.25 -248.7,336.26 l -246.3,338.74 142.5,412.51 -302.7,-1.52 -131.1,-403.16 -113.7,404.68 -232.3,0.06 52.3,-180.06"
         style="fill:#2e3192;fill-opacity:1;fill-rule:evenodd;stroke:none"
         id="path74" /><path
         d="m 3616.8,2301.55 250.36,2.24 79.64,177.76 h 277.5 v -180 l 252.8,-0.03 -12.8,937.54 v 150 h -240 L 3616.8,2301.55"
         style="fill:#2e3192;fill-opacity:1;fill-rule:evenodd;stroke:none"
         id="path76" /><path
         d="m 7044.3,2504.06 -30,-202.51 231.02,0.18 61.48,584.82 232.5,-585 232.76,-0.01 97.24,1087.52 -217.75,0.02 -22.25,-255.02 -43,-339.54 -219.5,594.54 -215.96,-0.2 -106.54,-884.8"
         style="fill:#2e3192;fill-opacity:1;fill-rule:evenodd;stroke:none"
         id="path78" /><path
         d="m 5739.3,2984.06 22.5,172.49 394.97,0.46 40.03,232.05 -620.13,-0.52 -32.37,-149.48 -187.5,-937.51 665.52,0.33 39.48,247.18 -414.25,0.32 39.25,209.68 372.52,0.45 39.98,224.55 h -360"
         style="fill:#2e3192;fill-opacity:1;fill-rule:evenodd;stroke:none"
         id="path80" /><path
         d="m 6435.45,2534.28 113.85,-0.22 c 85.11,0 142.5,52.51 142.5,135 0,56.76 -38.06,90 -90,90 l -130.25,-0.77 -36.1,-224.01"
         style="fill:#ffffff;fill-opacity:1;fill-rule:evenodd;stroke:none"
         id="path82" /><path
         d="m 15061.8,2586.56 v -15.01 c 0,-30.92 -25.2,-67.49 -52.5,-67.49 h -52.5 c -76.2,0 -142.1,114.07 -157.3,177.45 l -225.2,-19.96 c 43.9,-188.33 192.4,-374.99 427.5,-374.99 h 30 c 110.8,0 180.2,30.59 225,97.5 22.9,26.39 37.5,63.48 37.5,112.5 v 90 c 0,144.69 -127.5,276.49 -222.6,331.25 -75.9,43.73 -362.4,134.92 -362.4,223.75 0,27.4 20.7,59.99 45,59.99 h 37.5 c 58.8,0 122.9,-79.16 127.5,-135.45 l 225,15.46 c -42.3,88.13 -54.2,144.54 -121.7,215.8 -42.5,44.88 -148.6,106.7 -230.8,106.7 h -37.5 c -178.8,0 -262.5,-68.42 -262.5,-247.51 0,-392.53 570,-350.76 570,-569.99"
         style="fill:#2e3192;fill-opacity:1;fill-rule:evenodd;stroke:none"
         id="path84" /><path
         d="m 6502.05,2961.92 107.25,-0.36 c 74.44,0 112.5,54.42 112.5,127.5 0,44.73 -15.29,75 -60,75 l -126.84,-0.11 -32.91,-202.03"
         style="fill:#ffffff;fill-opacity:1;fill-rule:evenodd;stroke:none"
         id="path86" /><path
         d="m 9629.56,2714.53 169.89,0.11 -90.13,381.39 z"
         style="fill:#ffffff;fill-opacity:1;fill-rule:evenodd;stroke:none"
         id="path88" /><path
         d="m 4072.49,2722.43 166.45,-0.86 11.57,369.32 z"
         style="fill:#ffffff;fill-opacity:1;fill-rule:evenodd;stroke:none"
         id="path90" /><path
         d="m 8062.78,3449.77 102.52,2.54 176.5,221.75 -175.19,-2.25 -103.83,-222.04"
         style="fill:#2e3192;fill-opacity:1;fill-rule:evenodd;stroke:none"
         id="path92" /><path
         d="m 13657.5,2819.13 1.8,-97.57 163.7,2.54 -154.6,357.39 -10.9,-262.36"
         style="fill:#ffffff;fill-opacity:1;fill-rule:evenodd;stroke:none"
         id="path94" /><path
         d="m 9462.05,1265.86 c 153.23,0 275.01,-51.84 277.5,-449.235 2.49,-397.387 -124.27,-449.23 -277.5,-449.23 -153.24,0 -277.51,79.222 -277.51,449.23 0,370.015 124.27,449.235 277.51,449.235"
         style="fill:#ffffff;fill-opacity:1;fill-rule:evenodd;stroke:none"
         id="path96" /><path
         d="m 14175.7,6997.18 c 229.7,0 415.9,-191.44 415.9,-427.5 0,-236.06 -186.2,-427.5 -415.9,-427.5 -229.7,0 -416,191.44 -416,427.5 0,236.06 186.3,427.5 416,427.5"
         style="fill:#231f20;fill-opacity:1;fill-rule:evenodd;stroke:none"
         id="path98" /></g></g></svg>
