<svg xmlns="http://www.w3.org/2000/svg" width="24" height="24" viewBox="0 0 24 24">
    <g fill="none" fill-rule="evenodd">
        <g fill="#9ac61e">
            <g>
                <path d="M0 12C0 5.373 5.373 0 12 0s12 5.373 12 12-5.373 12-12 12S0 18.627 0 12zm12-6.4c-1.738 0-1.956.008-2.638.039-.682.03-1.147.139-1.554.297-.42.163-.778.382-1.133.738-.356.356-.575.713-.74 1.134-.158.407-.266.872-.296 1.553-.031.683-.039.9-.039 2.639 0 1.738.008 1.956.039 2.638.031.682.139 1.147.297 1.554.164.42.382.778.738 1.133.356.356.713.576 1.133.74.408.157.873.265 1.554.296.683.032.9.04 2.639.04 1.738 0 1.956-.008 2.638-.04.682-.03 1.147-.139 1.554-.297.421-.163.778-.383 1.133-.739.356-.355.575-.712.739-1.133.157-.407.265-.872.297-1.553.031-.683.039-.9.039-2.639 0-1.738-.008-1.956-.039-2.639-.032-.681-.14-1.146-.297-1.553-.164-.421-.383-.778-.739-1.134-.356-.356-.712-.575-1.133-.738-.408-.158-.873-.266-1.555-.297-.682-.031-.9-.039-2.638-.039H12z" transform="translate(-772 -9) translate(772 9)"/>
                <path d="M11.426 6.753h.575c1.708 0 1.91.006 2.586.037.624.029.962.133 1.188.22.299.117.512.255.736.48.224.223.362.437.478.735.088.226.192.564.22 1.188.032.675.038.878.038 2.586 0 1.708-.006 1.91-.037 2.585-.029.624-.133.963-.22 1.188-.117.299-.255.511-.48.735-.224.224-.436.363-.735.479-.225.088-.564.192-1.188.22-.675.031-.878.038-2.586.038-1.71 0-1.912-.007-2.587-.038-.624-.028-.962-.133-1.188-.22-.299-.116-.512-.255-.736-.479-.224-.224-.363-.437-.479-.736-.088-.225-.192-.564-.22-1.188-.031-.674-.037-.877-.037-2.586 0-1.71.006-1.91.037-2.585.028-.624.132-.963.22-1.189.116-.298.255-.512.479-.736.224-.224.437-.362.736-.479.226-.088.564-.192 1.188-.22.59-.027.82-.035 2.012-.036v.001zm3.99 1.063c-.423 0-.767.344-.767.768 0 .424.344.768.768.768.424 0 .768-.344.768-.768 0-.424-.344-.768-.768-.768zm-3.415.897c-1.816 0-3.287 1.472-3.287 3.287s1.471 3.286 3.287 3.286c1.815 0 3.286-1.47 3.286-3.286 0-1.815-1.471-3.287-3.286-3.287z" transform="translate(-772 -9) translate(772 9)"/>
                <path d="M12 9.867c1.179 0 2.134.955 2.134 2.133s-.955 2.133-2.133 2.133c-1.179 0-2.134-.955-2.134-2.133s.955-2.133 2.134-2.133z" transform="translate(-772 -9) translate(772 9)"/>
            </g>
        </g>
    </g>
</svg>
