<?xml version="1.0" encoding="UTF-8" standalone="no"?>
<!DOCTYPE svg PUBLIC "-//W3C//DTD SVG 1.1//EN" "http://www.w3.org/Graphics/SVG/1.1/DTD/svg11.dtd">
<svg xmlns="http://www.w3.org/2000/svg" xmlns:xlink="http://www.w3.org/1999/xlink" version="1.1" width="841.8898pt" height="595.2756pt" viewBox="0 0 841.8898 595.2756">
<g enable-background="new">
<g id="Layer-1" data-name="Vrstva 1">
<path transform="matrix(1,0,0,-1,0,595.2756)" d="M 420.7365 544.1077 L 766.1203 445.6534 L 766.1203 149.9562 L 420.7365 51.1676 L 75.7704 149.9562 L 75.7704 445.6534 Z " fill="#ffffff" fill-rule="evenodd"/>
<path transform="matrix(1,0,0,-1,0,595.2756)" d="M 420.2909 545.6727 L 421.1819 545.6727 L 766.5659 447.2184 L 767.749 446.8805 L 767.749 148.7293 L 766.5659 148.3911 L 421.1819 49.6029 L 420.2909 49.6029 L 75.3248 148.3911 L 74.1416 148.7299 L 74.1416 446.8805 L 75.3248 447.2184 Z M 420.7368 542.4157 L 77.3989 444.4262 L 77.3989 151.1821 L 420.7368 52.8602 L 764.4917 151.1827 L 764.4917 444.4257 Z " fill="#231f20"/>
<path transform="matrix(1,0,0,-1,0,595.2756)" d="M 108.3379 429.3694 L 420.7365 511.6238 L 733.1352 429.3694 L 733.1352 166.2398 L 420.7365 83.9021 L 108.3379 166.2398 Z " fill="#fff200" fill-rule="evenodd"/>
<path transform="matrix(1,0,0,-1,0,595.2756)" d="M 106.7088 430.6204 L 107.924 430.9407 L 420.3227 513.195 L 421.1498 513.195 L 733.5485 430.9407 L 734.7637 430.6204 L 734.7637 164.9886 L 733.5485 164.6685 L 421.1498 82.3306 L 420.3227 82.3306 L 107.924 164.6685 L 106.7088 164.9886 Z M 109.9664 428.118 L 109.9664 167.491 L 420.7363 85.5825 L 731.5064 167.491 L 731.5064 428.118 L 420.7363 509.9431 Z " fill="#231f20"/>
<path transform="matrix(.20089,.88755,.97533,-.22076,0,595.2756)" d="M -327.9986 278.8486 L -203.8079 280.8315 L -193.6701 321.5889 L -328.6154 319.4935 L -329.7546 378.2551 L -369.4448 378.3966 L -366.5078 219.649 L -326.8168 219.5073 Z M -187.7179 321.6827 L -181.7308 321.7765 L -191.8684 281.0197 L -197.8554 280.9253 Z M -175.7784 321.8706 L -169.6399 321.9676 L -179.7778 281.2102 L -185.9162 281.1129 Z M -163.6877 322.0611 L -157.7013 322.1558 L -167.8388 281.3981 L -173.8256 281.3034 Z M -151.7491 322.249 L -145.6106 322.3463 L -155.7485 281.5886 L -161.8866 281.4917 Z M -139.6585 322.4401 L -133.8222 322.5319 L -143.9597 281.7743 L -149.796 281.6827 Z M -132.1084 304.0569 L -131.7628 281.9665 L -137.626 281.874 Z " fill="#231f20" fill-rule="evenodd"/>
<path transform="matrix(.01494,.90988,.99987,-.01642,0,595.2756)" d="M -408.4747 447.0007 L -258.3034 444.6283 L -259.0356 404.0427 L -409.2069 406.4168 L -410.3269 347.6129 L -450.0176 347.4709 L -447.0803 506.2181 L -407.3899 506.3604 Z M -252.8442 444.5425 L -246.8662 444.4475 L -247.5986 403.8616 L -253.5766 403.9566 Z M -241.1382 444.3571 L -235.1594 444.2624 L -235.8916 403.6768 L -241.8707 403.7712 Z M -229.4303 444.172 L -223.4523 444.0776 L -224.1845 403.492 L -230.1625 403.5864 Z M -217.8485 443.9891 L -212.3357 443.9021 L -212.9706 403.3145 L -218.5807 403.4032 Z " fill="#231f20" fill-rule="evenodd"/>
<path transform="matrix(.45687,-.84431,-.87949,-.47591,0,595.2756)" d="M 627.1248 -352.3742 L 611.5586 -295.4611 L 647.7446 -285.5724 L 689.7129 -439.1453 L 653.527 -449.0342 L 637.8083 -391.5136 L 523.9905 -420.1826 L 503.2979 -383.4717 Z M 518.5327 -421.5574 L 513.0431 -422.9405 L 492.3462 -386.2219 L 497.8378 -384.8426 Z M 507.5855 -424.3153 L 501.9579 -425.7329 L 481.2568 -389.0066 L 486.8864 -387.593 Z M 496.5004 -427.1074 L 491.0105 -428.4901 L 470.3051 -391.7568 L 475.7967 -390.3775 Z M 485.553 -429.8649 L 479.9245 -431.2823 L 459.2151 -394.5419 L 464.8456 -393.1282 Z M 474.467 -432.6571 L 469.1154 -434.0049 L 448.4024 -397.2577 L 453.7556 -395.9133 Z M 463.3078 -435.4673 L 457.9322 -436.822 L 452.0341 -415.4669 Z " fill="#231f20" fill-rule="evenodd"/>
</g>
</g>
</svg>
