<svg xmlns="http://www.w3.org/2000/svg" width="24" height="24" viewBox="0 0 24 24">
    <g fill="none" fill-rule="evenodd">
        <g fill="#9ac61e">
            <g>
                <path d="M0 12C0 5.373 5.373 0 12 0s12 5.373 12 12-5.373 12-12 12S0 18.627 0 12zm18.133-2.963c-.148-.566-.581-1.011-1.132-1.162C16.003 7.6 12 7.6 12 7.6s-4.003 0-5 .275c-.552.15-.985.596-1.133 1.162C5.6 10.06 5.6 12.2 5.6 12.2s0 2.138.267 3.163c.148.566.581 1.011 1.132 1.162C7.997 16.8 12 16.8 12 16.8s4.003 0 5-.275c.552-.15.985-.596 1.133-1.162.267-1.025.267-3.163.267-3.163s0-2.138-.267-3.163z" transform="translate(-1146 -9) translate(1146 9)"/>
                <path d="M10.8 14.4L10.8 10.4 14 12.4z" transform="translate(-1146 -9) translate(1146 9)"/>
            </g>
        </g>
    </g>
</svg>
